<svg width="56" height="57" viewBox="0 0 56 57" fill="none" xmlns="http://www.w3.org/2000/svg">
<rect x="1" y="1.63385" width="54" height="54" rx="3" fill="#FF007A"/>
<rect x="1" y="1.63385" width="54" height="54" rx="3" stroke="black" stroke-width="2"/>
<g clip-path="url(#clip0_254_841)">
<path d="M25.0283 19.9156C24.6845 19.866 24.6681 19.8495 24.8319 19.833C25.1429 19.7835 25.8634 19.8495 26.3709 19.9651C27.5498 20.2458 28.614 20.9723 29.7437 22.2438L30.0384 22.5905L30.4641 22.5245C32.2815 22.2272 34.148 22.4584 35.7035 23.1849C36.1291 23.3831 36.8004 23.7794 36.8823 23.8784C36.915 23.9115 36.9642 24.1261 36.9969 24.3408C37.1115 25.1168 37.0624 25.6947 36.8168 26.1406C36.6858 26.3882 36.6858 26.4543 36.7677 26.6689C36.8332 26.8341 37.0297 26.9496 37.2098 26.9496C37.6027 26.9496 38.012 26.3222 38.2085 25.4471L38.2904 25.1003L38.4377 25.2654C39.2727 26.2066 39.9277 27.511 40.0259 28.4357L40.0586 28.6834L39.9113 28.4687C39.6657 28.089 39.4365 27.8413 39.1254 27.6266C38.5687 27.2469 37.9793 27.1313 36.4239 27.0487C35.0158 26.9662 34.2135 26.8506 33.4276 26.5864C32.085 26.1406 31.3974 25.5626 29.8092 23.4326C29.1052 22.4914 28.6631 21.9796 28.221 21.5503C27.255 20.6091 26.289 20.1137 25.0283 19.9156Z" fill="white"/>
<path d="M37.2261 22.0126C37.2589 21.3851 37.3407 20.9723 37.5208 20.5926C37.5863 20.444 37.6518 20.3119 37.6682 20.3119C37.6846 20.3119 37.6518 20.4274 37.6027 20.5595C37.4717 20.9228 37.4553 21.4347 37.5372 22.0126C37.6518 22.7556 37.7009 22.8547 38.4868 23.6638C38.847 24.0435 39.2727 24.5224 39.4365 24.7205L39.7148 25.0838L39.4365 24.8196C39.0926 24.4894 38.3067 23.8619 38.1266 23.7794C38.012 23.7133 37.9956 23.7133 37.9138 23.7959C37.8483 23.8619 37.8319 23.961 37.8319 24.4398C37.8155 25.1829 37.7173 25.6452 37.4717 26.124C37.3407 26.3717 37.3244 26.3222 37.439 26.0415C37.5208 25.8268 37.5372 25.7278 37.5372 25.0177C37.5372 23.5812 37.3735 23.2345 36.3747 22.6566C36.1291 22.5079 35.7034 22.2933 35.4579 22.1777C35.1959 22.0621 34.9994 21.9631 35.0158 21.9631C35.0485 21.93 36.0145 22.2107 36.3911 22.3759C36.9642 22.607 37.0624 22.6235 37.1279 22.607C37.177 22.5575 37.2098 22.4254 37.2261 22.0126Z" fill="white"/>
<path d="M25.6996 24.4729C25.012 23.5152 24.5699 22.0291 24.6681 20.9228L24.7009 20.5761L24.8646 20.6091C25.1593 20.6586 25.6669 20.8568 25.9125 21.0054C26.5674 21.4017 26.8621 21.9465 27.1404 23.3005C27.2223 23.6968 27.3369 24.1591 27.386 24.3077C27.4679 24.5554 27.779 25.1333 28.0409 25.4966C28.221 25.7608 28.1064 25.8929 27.6971 25.8599C27.0749 25.7938 26.2399 25.2159 25.6996 24.4729Z" fill="white"/>
<path d="M36.3911 31.6555C33.1493 30.3346 32.0032 29.1953 32.0032 27.2634C32.0032 26.9827 32.0195 26.7515 32.0195 26.7515C32.0359 26.7515 32.1505 26.8506 32.2979 26.9662C32.9528 27.4945 33.6896 27.7257 35.7362 28.0229C36.9314 28.2045 37.6191 28.3366 38.2412 28.5513C40.2224 29.2118 41.4503 30.5657 41.745 32.3986C41.8269 32.9269 41.7778 33.9342 41.6468 34.4625C41.5322 34.8753 41.2047 35.6349 41.1229 35.6514C41.1065 35.6514 41.0737 35.5688 41.0737 35.4367C41.041 34.7432 40.6972 34.0828 40.1241 33.5709C39.4365 32.9765 38.5523 32.5306 36.3911 31.6555Z" fill="white"/>
<path d="M34.0989 32.2004C34.0662 31.9527 33.9843 31.639 33.9352 31.5069L33.8533 31.2592L34.0007 31.4409C34.2135 31.6885 34.3773 31.9858 34.5246 32.3986C34.6392 32.7123 34.6392 32.8114 34.6392 33.3232C34.6392 33.8186 34.6228 33.9342 34.5246 34.2149C34.3609 34.6607 34.1644 34.9744 33.8369 35.3212C33.2475 35.9321 32.478 36.2623 31.381 36.4109C31.1845 36.4275 30.6279 36.477 30.1367 36.51C28.9087 36.5761 28.0901 36.7082 27.3533 36.9723C27.255 37.0054 27.1568 37.0384 27.1404 37.0219C27.1077 36.9889 27.6153 36.6916 28.0246 36.4935C28.5976 36.2128 29.187 36.0642 30.4805 35.833C31.119 35.734 31.774 35.6019 31.9377 35.5358C33.5586 35.0239 34.3609 33.7525 34.0989 32.2004Z" fill="white"/>
<path d="M35.5888 34.8588C35.1631 33.9176 35.0649 33.026 35.2941 32.1839C35.3269 32.1013 35.3596 32.0188 35.3924 32.0188C35.4251 32.0188 35.5233 32.0683 35.6216 32.1344C35.8181 32.2665 36.2274 32.4976 37.2752 33.0755C38.6014 33.8021 39.3546 34.3635 39.8785 35.0074C40.337 35.5688 40.6153 36.2128 40.7463 37.0054C40.8282 37.4512 40.779 38.5245 40.6644 38.9703C40.3042 40.3738 39.4856 41.4966 38.2904 42.1406C38.1103 42.2396 37.9629 42.3057 37.9465 42.3057C37.9302 42.3057 37.9956 42.1406 38.0939 41.9424C38.4868 41.1003 38.536 40.2912 38.2412 39.3831C38.0611 38.8217 37.6846 38.1447 36.9314 37.0054C36.0309 35.6844 35.8181 35.3377 35.5888 34.8588Z" fill="white"/>
<path d="M23.391 39.9115C24.6026 38.8877 26.0926 38.1612 27.4679 37.93C28.0573 37.831 29.0397 37.864 29.58 38.0126C30.4478 38.2438 31.2337 38.7391 31.643 39.35C32.0359 39.9445 32.216 40.4563 32.3961 41.5957C32.4616 42.0415 32.5435 42.5038 32.5599 42.6029C32.6908 43.1973 32.9528 43.6596 33.2803 43.9073C33.7878 44.2871 34.672 44.3036 35.5397 43.9734C35.6871 43.9238 35.8181 43.8743 35.8181 43.8908C35.8508 43.9238 35.4087 44.221 35.114 44.3697C34.7047 44.5843 34.3772 44.6504 33.9352 44.6504C33.1493 44.6504 32.478 44.2376 31.9377 43.412C31.8231 43.2468 31.5939 42.768 31.3974 42.3222C30.8243 40.9847 30.5296 40.5884 29.8583 40.1426C29.2689 39.7628 28.5158 39.6803 27.9427 39.961C27.1895 40.3242 26.9931 41.2984 27.517 41.8929C27.7299 42.1406 28.1228 42.3387 28.4503 42.3882C29.0561 42.4708 29.58 41.9919 29.58 41.381C29.58 40.9847 29.4326 40.7536 29.0397 40.5719C28.5158 40.3408 27.9427 40.605 27.9591 41.1168C27.9591 41.3315 28.0573 41.4636 28.2702 41.5626C28.4011 41.6287 28.4011 41.6287 28.3029 41.6122C27.8281 41.5131 27.7135 40.9187 28.0901 40.5389C28.5485 40.0766 29.5145 40.2747 29.842 40.9187C29.9729 41.1829 29.9893 41.7112 29.8747 42.0415C29.5964 42.768 28.8105 43.1478 28.0082 42.9331C27.4679 42.7845 27.2387 42.6359 26.5838 41.9589C25.4377 40.7701 24.9956 40.5389 23.3583 40.2912L23.0472 40.2417L23.391 39.9115Z" fill="white"/>
<path fill-rule="evenodd" clip-rule="evenodd" d="M14.7791 13.3439C18.594 18.0167 24.4718 25.2819 24.7665 25.6782C25.0121 26.0085 24.9139 26.3222 24.5046 26.5534C24.2754 26.6855 23.8005 26.8175 23.5713 26.8175C23.3094 26.8175 22.9983 26.6855 22.7854 26.4708C22.6381 26.3222 21.9995 25.381 20.5587 23.1189C19.4617 21.3851 18.5285 19.9486 18.5121 19.9321C18.4466 19.8991 18.4466 19.8991 20.4441 23.4987C21.7048 25.7608 22.1141 26.5699 22.1141 26.6689C22.1141 26.8836 22.0486 26.9992 21.7867 27.2964C21.3446 27.7917 21.1481 28.3531 21.0008 29.5255C20.8371 30.8299 20.395 31.7546 19.1343 33.3232C18.3975 34.2479 18.2829 34.413 18.1028 34.7928C17.8736 35.2551 17.8081 35.5193 17.7753 36.1137C17.7426 36.7412 17.8081 37.1375 17.9882 37.7319C18.1519 38.2603 18.332 38.607 18.7741 39.284C19.1506 39.8784 19.3799 40.3243 19.3799 40.4894C19.3799 40.6215 19.4126 40.6215 20.002 40.4894C21.4101 40.1591 22.5726 39.5977 23.2111 38.9042C23.6041 38.4749 23.7023 38.2438 23.7023 37.6493C23.7023 37.2696 23.6859 37.187 23.5877 36.9558C23.424 36.5926 23.1129 36.2954 22.4416 35.833C21.5575 35.2221 21.1809 34.7267 21.0826 34.0663C21.0008 33.5049 21.099 33.1251 21.5902 32.0848C22.0978 31.0116 22.2287 30.5657 22.3106 29.476C22.3597 28.7825 22.4416 28.5018 22.6381 28.2871C22.8509 28.0559 23.031 27.9734 23.5386 27.9073C24.3736 27.7917 24.9139 27.5771 25.3396 27.1643C25.7162 26.8175 25.8799 26.4708 25.8963 25.9589L25.9126 25.5792L25.6998 25.348C24.9303 24.4563 14.2715 12.6339 14.2224 12.6339C14.206 12.6339 14.468 12.9476 14.7791 13.3439ZM19.8056 36.8237C19.9857 36.51 19.8874 36.1137 19.5927 35.9156C19.3144 35.734 18.8887 35.8165 18.8887 36.0642C18.8887 36.1302 18.9214 36.1963 19.0197 36.2293C19.167 36.3119 19.1834 36.3944 19.0688 36.5761C18.9542 36.7577 18.9542 36.9228 19.1015 37.0384C19.3307 37.22 19.6418 37.121 19.8056 36.8237Z" fill="white"/>
<path fill-rule="evenodd" clip-rule="evenodd" d="M26.4364 28.1385C26.0434 28.2541 25.6669 28.6834 25.5523 29.1127C25.4868 29.3769 25.5195 29.8557 25.6341 30.0043C25.8142 30.2355 25.9779 30.3015 26.4364 30.3015C27.3369 30.3015 28.1064 29.9053 28.1883 29.4264C28.2702 29.0301 27.9263 28.4852 27.4515 28.2376C27.2059 28.1055 26.6984 28.0559 26.4364 28.1385ZM27.4843 28.9641C27.6152 28.7659 27.5661 28.5513 27.3205 28.4027C26.8785 28.122 26.2072 28.3531 26.2072 28.7825C26.2072 28.9971 26.551 29.2283 26.8785 29.2283C27.0913 29.2283 27.386 29.0962 27.4843 28.9641Z" fill="white"/>
</g>
<defs>
<clipPath id="clip0_254_841">
<rect width="27.5556" height="32" fill="white" transform="translate(14.2222 12.6339)"/>
</clipPath>
</defs>
</svg>
